# xmcd
#
# Track frame offsets:
#	183
#	11383
#	24993
#	37000
#	49558
#	61110
#	75465
#	91533
#	106510
#	119353
#	132750
#	145593
#	158818
#	178245
#	194605
#	210245
#	225770
#	239288
#	250170
#	262328
#	272858
#	286503
#	300243
#
# Disc length: 4204 seconds
#
# Revision: 0
# Processed by: cddbd v1.5PL3 Copyright (c) Steve Scherf et al.
# Submitted via: audiograbber 1.80
#
DISCID=19106a17
DTITLE=Claude François - 124 succès, 124 souvenirs
DYEAR=1900
DGENRE=blues
TTITLE0=Tout éclate, tout explose
TTITLE1=Une petite larme m'a trahi
TTITLE2=Diggy liggy lai et Diggy  liggy lo
TTITLE3=Le monde est grand, les gens sont beaux
TTITLE4=C'est de l'eau, c'est du vent
TTITLE5=Si douce à mon souvenir
TTITLE6=Fleur sauvage
TTITLE7=Il fait beau, il fait bon
TTITLE8=Je te demande pardon
TTITLE9=C'est la même chanson
TTITLE10=Aime-moi ou quitte-moi
TTITLE11=Un peu d'amour, beaucoup de haine
TTITLE12=Un jardin dans mon coeur
TTITLE13=Y'a le printemps qui chante
TTITLE14=Quand l'épicier ouvre sa boutique
TTITLE15=Jésus-Christ Superstar
TTITLE16=Le lundi au soleil
TTITLE17=Ninna, Nanna
TTITLE18=Belinda
TTITLE19=Il n'y a que l'amour qui rende heureux
TTITLE20=Celui qui reste
TTITLE21=Mon mensonge et ma vérité
TTITLE22=Je t'embrasse
EXTD=Selection du Reader's Digest, Disque 4
EXTT0=
EXTT1=
EXTT2=
EXTT3=
EXTT4=
EXTT5=
EXTT6=
EXTT7=
EXTT8=
EXTT9=
EXTT10=
EXTT11=
EXTT12=
EXTT13=
EXTT14=
EXTT15=
EXTT16=
EXTT17=
EXTT18=
EXTT19=
EXTT20=
EXTT21=
EXTT22=
PLAYORDER=
